<?xml version="1.0" encoding="UTF-8" standalone="no"?>
<!DOCTYPE svg PUBLIC "-//W3C//DTD SVG 1.1//EN"
 "http://www.w3.org/Graphics/SVG/1.1/DTD/svg11.dtd">
<!-- Generated by graphviz version 8.0.3 (0)
 -->
<!-- Pages: 1 -->
<svg width="581pt" height="128pt"
 viewBox="0.00 0.00 581.00 128.00" xmlns="http://www.w3.org/2000/svg" xmlns:xlink="http://www.w3.org/1999/xlink">
<g id="graph0" class="graph" transform="scale(1 1) rotate(0) translate(4 124)">
<polygon fill="white" stroke="none" points="-4,4 -4,-124 577,-124 577,4 -4,4"/>
<!-- 139894726966816 -->
<g id="node1" class="node">
<title>139894726966816</title>
<polygon fill="none" stroke="black" points="0,-83.5 0,-119.5 108,-119.5 108,-83.5 0,-83.5"/>
<text text-anchor="middle" x="11.5" y="-97.8" font-family="Times,serif" font-size="14.00">b</text>
<polyline fill="none" stroke="black" points="23,-83.5 23,-119.5"/>
<text text-anchor="middle" x="65.5" y="-97.8" font-family="Times,serif" font-size="14.00">data &#45;3.0000</text>
</g>
<!-- 139894725287104* -->
<g id="node5" class="node">
<title>139894725287104*</title>
<ellipse fill="none" stroke="black" cx="171" cy="-73.5" rx="27" ry="18"/>
<text text-anchor="middle" x="171" y="-69.8" font-family="Times,serif" font-size="14.00">*</text>
</g>
<!-- 139894726966816&#45;&gt;139894725287104* -->
<g id="edge5" class="edge">
<title>139894726966816&#45;&gt;139894725287104*</title>
<path fill="none" stroke="black" d="M107.79,-88.65C116.82,-86.45 126.01,-84.21 134.45,-82.15"/>
<polygon fill="black" stroke="black" points="135.16,-85.34 144.05,-79.57 133.51,-78.54 135.16,-85.34"/>
</g>
<!-- 139894725287056 -->
<g id="node2" class="node">
<title>139894725287056</title>
<polygon fill="none" stroke="black" points="470,-27.5 470,-63.5 573,-63.5 573,-27.5 470,-27.5"/>
<text text-anchor="middle" x="481.5" y="-41.8" font-family="Times,serif" font-size="14.00">d</text>
<polyline fill="none" stroke="black" points="493,-27.5 493,-63.5"/>
<text text-anchor="middle" x="533" y="-41.8" font-family="Times,serif" font-size="14.00">data 4.0000</text>
</g>
<!-- 139894725287056+ -->
<g id="node3" class="node">
<title>139894725287056+</title>
<ellipse fill="none" stroke="black" cx="407" cy="-45.5" rx="27" ry="18"/>
<text text-anchor="middle" x="407" y="-41.8" font-family="Times,serif" font-size="14.00">+</text>
</g>
<!-- 139894725287056+&#45;&gt;139894725287056 -->
<g id="edge1" class="edge">
<title>139894725287056+&#45;&gt;139894725287056</title>
<path fill="none" stroke="black" d="M434.38,-45.5C442.04,-45.5 450.75,-45.5 459.61,-45.5"/>
<polygon fill="black" stroke="black" points="459.44,-49 469.44,-45.5 459.44,-42 459.44,-49"/>
</g>
<!-- 139894725287104 -->
<g id="node4" class="node">
<title>139894725287104</title>
<polygon fill="none" stroke="black" points="235,-55.5 235,-91.5 343,-91.5 343,-55.5 235,-55.5"/>
<text text-anchor="middle" x="246.5" y="-69.8" font-family="Times,serif" font-size="14.00">e</text>
<polyline fill="none" stroke="black" points="258,-55.5 258,-91.5"/>
<text text-anchor="middle" x="300.5" y="-69.8" font-family="Times,serif" font-size="14.00">data &#45;6.0000</text>
</g>
<!-- 139894725287104&#45;&gt;139894725287056+ -->
<g id="edge3" class="edge">
<title>139894725287104&#45;&gt;139894725287056+</title>
<path fill="none" stroke="black" d="M342.91,-60.73C352.32,-58.46 361.91,-56.14 370.68,-54.03"/>
<polygon fill="black" stroke="black" points="371.38,-57.22 380.28,-51.47 369.73,-50.41 371.38,-57.22"/>
</g>
<!-- 139894725287104*&#45;&gt;139894725287104 -->
<g id="edge2" class="edge">
<title>139894725287104*&#45;&gt;139894725287104</title>
<path fill="none" stroke="black" d="M198.32,-73.5C206.2,-73.5 215.21,-73.5 224.4,-73.5"/>
<polygon fill="black" stroke="black" points="224.22,-77 234.22,-73.5 224.22,-70 224.22,-77"/>
</g>
<!-- 139894726966672 -->
<g id="node6" class="node">
<title>139894726966672</title>
<polygon fill="none" stroke="black" points="234,-0.5 234,-36.5 344,-36.5 344,-0.5 234,-0.5"/>
<text text-anchor="middle" x="245.5" y="-14.8" font-family="Times,serif" font-size="14.00">c</text>
<polyline fill="none" stroke="black" points="257,-0.5 257,-36.5"/>
<text text-anchor="middle" x="300.5" y="-14.8" font-family="Times,serif" font-size="14.00">data 10.0000</text>
</g>
<!-- 139894726966672&#45;&gt;139894725287056+ -->
<g id="edge6" class="edge">
<title>139894726966672&#45;&gt;139894725287056+</title>
<path fill="none" stroke="black" d="M343.92,-31.05C352.98,-33.16 362.16,-35.3 370.59,-37.26"/>
<polygon fill="black" stroke="black" points="369.63,-40.86 380.16,-39.72 371.21,-34.04 369.63,-40.86"/>
</g>
<!-- 139894726967248 -->
<g id="node7" class="node">
<title>139894726967248</title>
<polygon fill="none" stroke="black" points="2.5,-28.5 2.5,-64.5 105.5,-64.5 105.5,-28.5 2.5,-28.5"/>
<text text-anchor="middle" x="14" y="-42.8" font-family="Times,serif" font-size="14.00">a</text>
<polyline fill="none" stroke="black" points="25.5,-28.5 25.5,-64.5"/>
<text text-anchor="middle" x="65.5" y="-42.8" font-family="Times,serif" font-size="14.00">data 2.0000</text>
</g>
<!-- 139894726967248&#45;&gt;139894725287104* -->
<g id="edge4" class="edge">
<title>139894726967248&#45;&gt;139894725287104*</title>
<path fill="none" stroke="black" d="M105.44,-58.34C115.22,-60.64 125.28,-63 134.46,-65.16"/>
<polygon fill="black" stroke="black" points="133.61,-68.79 144.15,-67.66 135.21,-61.97 133.61,-68.79"/>
</g>
</g>
</svg>
